<?xml version="1.0" encoding="UTF-8" standalone="no"?>
<!-- Created with Inkscape (http://www.inkscape.org/) -->

<svg
   width="436"
   height="222"
   viewBox="0 0 115.35833 58.7375"
   version="1.1"
   id="svg5"
   xmlns="http://www.w3.org/2000/svg"
   xmlns:svg="http://www.w3.org/2000/svg">
  <defs
     id="defs2" />
  <g
     id="layer1">
    <g
       id="g3712"
       transform="translate(-30.923693,-14.547973)">
      <path
         id="rect2642"
         style="fill:#ffd5d5;stroke:none;stroke-width:0.371594;stroke-linecap:round;stroke-linejoin:round;stroke-dasharray:none;stroke-opacity:1"
         d="m -95.40658,38.720117 c 1.78427,0 3.220992,1.436208 3.220992,3.220475 0,1.541185 -1.072191,2.822343 -2.514058,3.142961 1.141549,0.162975 2.013831,1.13953 2.013831,2.327507 0,1.091883 -0.736986,2.004619 -1.74253,2.271696 h 0.858346 c 1.699302,0 3.067513,1.368208 3.067513,3.067513 0,1.699302 -1.368211,3.066996 -3.067513,3.066996 h -49.486381 c -1.69931,0 -3.067,-1.367694 -3.067,-3.066996 0,-1.699305 1.36769,-3.067513 3.067,-3.067513 h 18.58181 c -0.0286,-0.0076 -0.0576,-0.01416 -0.0858,-0.02274 h 7.11223 c 1.24616,0 2.24896,-1.002806 2.24896,-2.248958 0,-1.246154 -1.0028,-2.249476 -2.24896,-2.249476 h -9.85883 c -1.78427,0 -3.22047,-1.436722 -3.22047,-3.220992 0,-1.784267 1.4362,-3.220475 3.22047,-3.220475 z m -41.88737,2.055689 c 1.2016,0 2.16886,0.967786 2.16886,2.169376 0,1.20159 -0.96726,2.16886 -2.16886,2.16886 h -5.78362 c -1.20159,0 -2.16886,-0.96727 -2.16886,-2.16886 0,-1.20159 0.96727,-2.169376 2.16886,-2.169376 z m 87.654086,12.902571 c 1.784269,0 3.220992,1.436723 3.220992,3.220992 0,1.784271 -1.436723,3.220476 -3.220992,3.220476 h -3.834391 c -1.3028,0 -2.351278,1.048995 -2.351278,2.351794 0,1.302799 1.048478,2.351278 2.351278,2.351278 h 19.324401 c 1.699306,0 3.067514,1.368208 3.067514,3.067513 0,1.699304 -1.368208,3.067513 -3.067514,3.067513 h -49.486385 c -1.699304,0 -3.067513,-1.368209 -3.067513,-3.067513 0,-1.699305 1.368209,-3.067513 3.067513,-3.067513 h 1.431438 c -1.3028,0 -2.351795,-1.048479 -2.351795,-2.351278 0,-1.302799 1.048995,-2.351794 2.351795,-2.351794 h 0.664558 c -1.784269,0 -3.220475,-1.436205 -3.220475,-3.220476 0,-1.784269 1.436206,-3.220992 3.220475,-3.220992 z"
         transform="scale(-1,1)" />
      <path
         id="path2835"
         style="fill:#ffaaaa;stroke-width:0.581289;stroke-linecap:round;stroke-linejoin:round"
         d="M 109.90187,54.036354 A 19.057423,19.057423 0 0 1 90.844452,73.093777 19.057423,19.057423 0 0 1 71.787029,54.036354 19.057423,19.057423 0 0 1 90.844452,34.978931 19.057423,19.057423 0 0 1 109.90187,54.036354 Z" />
      <path
         id="circle955"
         style="fill:none;stroke:#ff2a2a;stroke-width:1;stroke-linecap:round;stroke-linejoin:round;stroke-dasharray:none"
         d="m 72.259912,60.271588 c -0.48505,-1.146787 -0.861686,-2.350594 -1.11706,-3.598573 -0.255373,-1.247979 -0.389484,-2.540129 -0.389484,-3.863603 0,-2.646948 0.536444,-5.168602 1.506544,-7.462176 0.9701,-2.293574 2.373856,-4.359067 4.10848,-6.093691 0.867312,-0.867312 1.817342,-1.651908 2.83724,-2.340937 0.509949,-0.344514 1.037365,-0.665138 1.580642,-0.960264 m 1.675809,-0.807279 c 2.293574,-0.9701 4.815228,-1.506544 7.462176,-1.506544 1.323474,0 2.615624,0.134111 3.863603,0.389484 1.247979,0.255374 2.451786,0.63201 3.598573,1.11706 1.146787,0.48505 2.236553,1.078514 3.256455,1.767543 1.01989,0.68903 1.96992,1.473625 2.83724,2.340937 0.86731,0.867312 1.6519,1.817342 2.34093,2.83724 0.68903,1.019898 1.2825,2.109664 1.76755,3.256451 0.48505,1.146787 0.86168,2.350594 1.11706,3.598573 0.25537,1.247979 0.38948,2.540129 0.38948,3.863603 0,1.323474 -0.13411,2.615624 -0.38948,3.863603 -0.25538,1.247979 -0.63201,2.451786 -1.11706,3.598573 -0.24252,0.573394 -0.51215,1.132532 -0.80728,1.675809 m -0.96027,1.580642 c -0.34451,0.509947 -0.71292,1.002431 -1.10361,1.47584 m -1.23732,1.3614 c -0.86732,0.867317 -1.81735,1.651907 -2.83724,2.340937 -1.019902,0.689029 -2.109668,1.282493 -3.256455,1.767543 -1.146787,0.48505 -2.350594,0.861686 -3.598573,1.11706 -1.247979,0.255373 -2.540129,0.389484 -3.863603,0.389484 -1.323474,0 -2.615624,-0.134111 -3.863603,-0.389484 -1.247979,-0.255374 -2.451786,-0.63201 -3.598573,-1.11706 -1.146787,-0.48505 -2.236553,-1.078514 -3.256451,-1.767543 -1.019898,-0.68903 -1.969928,-1.473625 -2.83724,-2.340937" />
      <path
         id="path1845"
         style="color:#000000;fill:#ff2a2a;stroke-linecap:round"
         d="m 80.437984,40.092126 a 0.5,0.5 0 0 0 -0.287838,0.113172 0.5,0.5 0 0 0 -0.07028,0.702799 l 9.450585,11.51816 -9.251114,11.677324 a 0.5,0.5 0 0 0 0.08217,0.703316 0.5,0.5 0 0 0 0.701249,-0.08217 l 9.11624,-11.507824 9.531718,11.616862 a 0.5,0.5 0 0 0 0.703316,0.06873 0.5,0.5 0 0 0 0.0703,-0.703316 l -9.669694,-11.78481 8.958626,-11.308871 a 0.5,0.5 0 0 0 -0.08165,-0.701249 0.5,0.5 0 0 0 -0.367419,-0.10542 0.5,0.5 0 0 0 -0.33383,0.185519 l -8.824267,11.138855 -9.31261,-11.349695 a 0.5,0.5 0 0 0 -0.415479,-0.181385 z" />
      <path
         id="path2332"
         style="fill:none;stroke:#ff2a2a;stroke-width:0.6;stroke-linecap:round;stroke-linejoin:round"
         d="m 69.95337,30.38039 a 2.4581306,2.4581306 0 0 1 -2.458131,2.458131 2.4581306,2.4581306 0 0 1 -2.45813,-2.458131 2.4581306,2.4581306 0 0 1 2.45813,-2.45813 2.4581306,2.4581306 0 0 1 2.458131,2.45813 z" />
      <path
         id="circle2334"
         style="fill:none;stroke:#ffaaaa;stroke-width:0.448;stroke-linecap:round;stroke-linejoin:round"
         d="m 122.73209,61.623398 a 1.5221158,1.5221158 0 0 1 -1.52211,1.522116 1.5221158,1.5221158 0 0 1 -1.52212,-1.522116 1.5221158,1.5221158 0 0 1 1.52212,-1.522116 1.5221158,1.5221158 0 0 1 1.52211,1.522116 z" />
      <path
         id="path2336"
         style="color:#000000;fill:#ffaaaa;stroke-linecap:round"
         d="m 132.73815,37.453011 a 0.36250949,0.36250949 0 0 0 -0.36122,0.361218 v 0.885218 h -0.8847 a 0.36250949,0.36250949 0 0 0 -0.36328,0.363285 0.36250949,0.36250949 0 0 0 0.36328,0.363285 h 0.8847 v 0.884701 a 0.36250949,0.36250949 0 0 0 0.36122,0.361218 0.36250949,0.36250949 0 0 0 0.36329,-0.361218 v -0.884701 h 0.8847 a 0.36250949,0.36250949 0 0 0 0.36328,-0.363285 0.36250949,0.36250949 0 0 0 -0.36328,-0.363285 h -0.8847 v -0.885218 a 0.36250949,0.36250949 0 0 0 -0.36329,-0.361218 z" />
      <path
         id="rect2773"
         style="fill:#ffd5d5;stroke-width:0.299505;stroke-linecap:round;stroke-linejoin:round"
         d="m -107.4322,14.739669 c 1.58401,0 2.85925,1.275251 2.85925,2.859257 0,1.584004 -1.27524,2.859257 -2.85925,2.859257 h -6.98717 c 0.0631,0 0.12533,0.0032 0.18707,0.0083 -1.15648,0.09596 -2.05931,1.059131 -2.05931,2.241207 0,1.182076 0.90283,2.145244 2.05931,2.241207 -0.0617,0.005 -0.12399,0.0083 -0.18707,0.0083 h 1.16633 c 1.13857,0 2.05518,0.916609 2.05518,2.055172 0,1.138563 -0.91661,2.055171 -2.05518,2.055171 h -26.78492 c -1.13857,0 -2.05518,-0.916608 -2.05518,-2.055171 0,-1.138563 0.91661,-2.055172 2.05518,-2.055172 h 18.17925 c 1.24616,0 2.24947,-1.003321 2.24947,-2.249475 0,-1.246155 -1.00331,-2.249475 -2.24947,-2.249475 h -7.9127 c -1.58401,0 -2.85925,-1.275253 -2.85925,-2.859257 0,-1.584006 1.27524,-2.859257 2.85925,-2.859257 z m -29.96406,3.235978 c 0.97501,0 1.76009,0.784566 1.76009,1.759582 0,0.975017 -0.78508,1.7601 -1.76009,1.7601 h -1.387 c -0.97502,0 -1.7601,-0.785083 -1.7601,-1.7601 0,-0.975016 0.78508,-1.759582 1.7601,-1.759582 z"
         transform="scale(-1,1)" />
    </g>
  </g>
</svg>
