<?xml version="1.0" encoding="UTF-8" standalone="no"?>
<svg
   width="46"
   height="46"
   viewBox="0 0 46 46"
   version="1.1"
   id="svg9301"
   sodipodi:docname="logo_alone.svg"
   inkscape:version="1.2.1 (9c6d41e410, 2022-07-14)"
   inkscape:export-filename="logo_alone.png"
   inkscape:export-xdpi="2137.0435"
   inkscape:export-ydpi="2137.0435"
   xmlns:inkscape="http://www.inkscape.org/namespaces/inkscape"
   xmlns:sodipodi="http://sodipodi.sourceforge.net/DTD/sodipodi-0.dtd"
   xmlns="http://www.w3.org/2000/svg"
   xmlns:svg="http://www.w3.org/2000/svg">
  <defs
     id="defs9305" />
  <sodipodi:namedview
     id="namedview9303"
     pagecolor="#2ea636"
     bordercolor="#666666"
     borderopacity="1.0"
     inkscape:showpageshadow="2"
     inkscape:pageopacity="1"
     inkscape:pagecheckerboard="0"
     inkscape:deskcolor="#d1d1d1"
     showgrid="false"
     inkscape:zoom="8.2516129"
     inkscape:cx="74.409695"
     inkscape:cy="24.540657"
     inkscape:window-width="1419"
     inkscape:window-height="1230"
     inkscape:window-x="4074"
     inkscape:window-y="631"
     inkscape:window-maximized="0"
     inkscape:current-layer="svg9301" />
  <g
     id="g9445"
     transform="translate(1.9578266,0.614362)"
     style="fill:#ffffff">
    <path
       d="m 33.618595,15.836638 c -2.26,-2.113 -5.158,-3.251 -8.405,-3.251 -1.37,0 -2.77,0.195 -4.171,0.585 -1.433,-0.39 -2.834,-0.585 -4.171,-0.585 -3.248,0 -6.145,1.138 -8.406,3.25 -3.756,3.511 -5.126,9.264 -3.63,15.017 1.465,5.59 6.337,12.157 16.111,12.222 h 0.128 c 9.328,-0.033 14.677,-6.599 16.174,-12.222 1.496,-5.753 0.127,-11.474 -3.63,-15.017 m 1.05,14.302 c -1.241,4.713 -5.794,10.206 -13.626,10.239 h -0.096 c -8.278,-0.065 -12.321,-5.558 -13.563,-10.24 -1.274,-4.745 -0.16,-9.491 2.865,-12.319 1.752,-1.658 4.044,-2.535 6.623,-2.535 1.21,0 2.515,0.195 3.82,0.585 l 0.383,0.097 0.382,-0.097 c 1.305,-0.39 2.579,-0.585 3.788,-0.585 2.547,0 4.84,0.877 6.591,2.535 2.993,2.86 4.107,7.574 2.834,12.32"
       id="path9289"
       style="fill:#ffffff;fill-rule:nonzero"
       sodipodi:nodetypes="cscscccccccccccscccscc" />
    <path
       d="m 23.452595,12.053638 c 2.566,-1.325 5.321,-2.435 7.887,-3.175 -1.647,0 -4.72,0.555 -7.063,1.11 0.918,-1.603 1.393,-3.422 1.33,-5.271 -0.412,1.819 -1.267,3.237 -2.47,3.976 -0.159,0.093 -0.317,0.185 -0.507,0.247 0.507,-2.528 0.982,-5.61 0.918,-7.244 -0.886,1.51 -2.058,4.685 -2.85,7.244 -1.647,-0.986 -3.548,-1.418 -5.48,-1.264 1.616,0.247 2.883,0.894 3.611,1.88 0.158,0.216 0.285,0.432 0.38,0.648 -2.439,-0.278 -5.67,-0.524 -7.38,-0.308 2.66,0.462 6.113,1.233 8.33,2.312 1.299,0.554 2.09,0.493 3.294,-0.155 m -4.773,24.487 c -1.639,-0.445 -3.061,-1.431 -4.113,-2.8 -1.268,-1.684 -1.825,-3.784 -1.608,-5.916 0.278,-2.29 1.454,-4.39 3.093,-5.503 l 0.216,-0.16 -0.154,-0.222 c -0.093,-0.127 -0.186,-0.287 -0.248,-0.382 0.464,-0.127 1.144,-0.255 1.98,-0.255 0.99,0 3.896,-0.254 5.906,2.705 -0.556,4.04 -3.927,4.231 -4.608,4.231 -5.566,0 -4.175,3.913 -4.02,3.913 0.154,0 1.639,-1.209 2.165,-1.495 -0.866,1.177 -1.268,2.227 -0.99,3.245 0.34,1.05 1.175,1.94 2.381,2.64 m 2.073,-12.662 c -0.495,0 -0.866,0.414 -0.866,0.891 0,0.51 0.402,0.891 0.866,0.891 0.494,0 0.866,-0.414 0.866,-0.89 0,-0.51 -0.403,-0.892 -0.866,-0.892"
       id="path9291"
       style="fill:#ffffff;fill-rule:nonzero" />
    <path
       d="m 23.404595,20.207638 c 1.64,0.446 3.062,1.432 4.113,2.8 1.268,1.686 1.825,3.786 1.608,5.917 -0.278,2.29 -1.453,4.39 -3.092,5.504 l -0.217,0.16 0.155,0.222 c 0.093,0.127 0.185,0.254 0.247,0.382 -0.464,0.127 -1.144,0.254 -1.979,0.254 -0.99,0 -3.897,0.255 -5.907,-2.704 0.557,-4.04 3.928,-4.231 4.608,-4.231 5.567,0 4.175,-3.914 4.02,-3.914 -0.154,0 -1.639,1.21 -2.164,1.496 0.866,-1.177 1.268,-2.227 0.99,-3.245 -0.34,-1.018 -1.176,-1.941 -2.382,-2.64 m -2.041,12.693 c 0.495,0 0.866,-0.414 0.866,-0.89 0,-0.478 -0.402,-0.892 -0.866,-0.892 -0.495,0 -0.866,0.414 -0.866,0.891 0,0.477 0.37,0.89 0.866,0.89"
       id="path9293"
       style="fill:#ffffff;fill-rule:nonzero" />
  </g>
</svg>
