<svg xmlns="http://www.w3.org/2000/svg" width="155" height="49" viewBox="0 0 155 49">
    <g fill="none" fill-rule="evenodd">
        <g fill="#FFF" fill-rule="nonzero">
            <g>
                <path d="M82.377 18.511h-3.349V28.75c-.232 1.83-1.856 3.21-3.746 3.21-2.089 0-3.78-1.637-3.78-3.66v-9.724h-3.215V28.3c0 3.723 3.15 6.771 6.995 6.771 1.36 0 2.62-.353 3.746-1.059v8.056c0 .064 0 1.572-1.06 2.6-.73.738-1.89 1.09-3.415 1.09h-2.885V49h2.885c2.486 0 4.442-.706 5.835-2.086 2.088-2.086 1.989-4.846 1.989-4.846V18.51zM102.972 17.422c-4.785 0-8.671 3.904-8.671 8.711 0 4.808 3.886 8.711 8.671 8.711 4.785 0 8.671-3.903 8.671-8.71 0-4.808-3.886-8.712-8.671-8.712m0 14.293c-3.051 0-5.556-2.517-5.556-5.582s2.505-5.581 5.556-5.581 5.556 2.516 5.556 5.581c.032 3.065-2.473 5.582-5.556 5.582M122.483 17.422c-4.786 0-8.672 3.904-8.672 8.711 0 4.808 3.886 8.711 8.672 8.711 4.785 0 8.67-3.903 8.67-8.71 0-4.808-3.885-8.712-8.67-8.712m0 14.293c-3.052 0-5.557-2.517-5.557-5.582s2.505-5.581 5.557-5.581c3.05 0 5.556 2.516 5.556 5.581 0 3.065-2.473 5.582-5.556 5.582" transform="translate(-277 -27) translate(277 27)"/>
                <path d="M86.56 6.474c-2.114 2.086-2.014 4.846-2.014 4.846v23.524h3.39V21.782h7.314v-3.241h-7.315v-7.253c0-.064 0-1.573 1.074-2.6.738-.738 1.913-1.091 3.456-1.091h2.92V4.356h-2.92c-2.516.032-4.496.738-5.905 2.118M146.39 17.772h-5.48c-1.097 0-2.16.19-3.128.572-.967.382-1.87.922-2.643 1.59-.774.667-1.418 1.494-1.902 2.416-.483.922-.903 2.226-1 3.942v.032c0 1.176.226 2.29.678 3.338.451 1.05 1.063 1.94 1.87 2.703.773.763 1.708 1.399 2.74 1.812 1.03.445 2.191.667 3.384.667s2.321-.222 3.385-.667c1.064-.445 1.998-1.05 2.772-1.812.774-.763 1.418-1.685 1.837-2.703.452-1.017.677-2.162.677-3.338V4.356h-3.19v13.416zm0 8.552c0 .731-.13 1.43-.42 2.067-.29.635-.677 1.208-1.16 1.716-.484.477-1.064.89-1.741 1.145-1.354.572-2.934.572-4.223 0-.645-.286-1.225-.668-1.74-1.145-.484-.477-.903-1.049-1.161-1.716-.29-.636-.42-1.336-.42-2.067 0-.731.13-1.43.42-2.098.29-.668.677-1.24 1.16-1.717.484-.477 1.064-.89 1.741-1.145.645-.286 1.354-.413 2.095-.413h5.48v5.373h-.032zM58.331 17.422c-2.011 0-3.926.922-5.203 2.447-1.277-1.557-3.192-2.447-5.204-2.447-3.703 0-6.735 3.019-6.735 6.705v9.629h3.096v-9.629c0-2.002 1.628-3.622 3.64-3.622 2.01 0 3.639 1.62 3.639 3.622v9.629h3.096v-9.629c0-2.002 1.628-3.622 3.64-3.622 2.01 0 3.638 1.62 3.638 3.622v9.629h3.097v-9.629c.032-3.686-2.97-6.705-6.704-6.705M154.719 5.428c-.207-.325-.447-.585-.79-.78-.344-.195-.722-.292-1.1-.292-.378 0-.756.097-1.1.292-.343.195-.618.455-.79.78-.206.325-.275.683-.275 1.105 0 .39.103.748.275 1.073.172.325.447.585.79.813.344.195.722.292 1.1.292.412 0 .79-.097 1.1-.292.343-.195.618-.455.79-.813.171-.325.274-.683.274-1.073.035-.422-.068-.78-.274-1.105m-.207 2.048c-.171.292-.412.52-.687.715-.309.163-.618.26-.962.26-.343 0-.653-.097-.962-.26-.309-.162-.55-.39-.687-.715-.172-.293-.24-.618-.24-.975 0-.358.068-.65.24-.975.172-.293.412-.52.687-.715.31-.163.619-.26.962-.26.344 0 .687.097.962.26.31.162.516.422.687.715.172.292.241.617.241.942 0 .39-.069.715-.24 1.008" transform="translate(-277 -27) translate(277 27)"/>
                <path d="M153.873 7.187c0-.146-.022-.233-.044-.349-.043-.087-.108-.174-.195-.203.174-.116.282-.29.282-.523 0-.203-.043-.377-.152-.493-.108-.116-.238-.175-.433-.175h-.499v2.178h.195v-.9h.369c.108 0 .195.03.238.087.044.058.065.174.065.32 0 .26 0 .406.022.464h.195v-.029c-.022-.029-.022-.087-.022-.145-.021 0-.021-.087-.021-.232m-.26-.755c-.065.058-.152.116-.26.116h-.347v-.813h.346c.13 0 .239.029.282.087.065.058.087.174.087.32 0 .115-.043.232-.108.29M29.377 14.14c-2.26-2.113-5.158-3.251-8.405-3.251-1.37 0-2.77.195-4.171.585-1.433-.39-2.834-.585-4.171-.585-3.248 0-6.145 1.138-8.406 3.25C.468 17.65-.902 23.403.594 29.156c1.465 5.59 6.337 12.157 16.111 12.222h.128c9.328-.033 14.677-6.599 16.174-12.222 1.496-5.753.127-11.474-3.63-15.017m1.05 14.302c-1.241 4.713-5.794 10.206-13.626 10.239h-.096C8.427 38.615 4.384 33.122 3.142 28.44c-1.274-4.745-.16-9.491 2.865-12.319 1.752-1.658 4.044-2.535 6.623-2.535 1.21 0 2.515.195 3.82.585l.383.097.382-.097c1.305-.39 2.579-.585 3.788-.585 2.547 0 4.84.877 6.591 2.535 2.993 2.86 4.107 7.574 2.834 12.32" transform="translate(-277 -27) translate(277 27)"/>
                <path d="M19.211 10.357c2.566-1.325 5.321-2.435 7.887-3.175-1.647 0-4.72.555-7.063 1.11.918-1.603 1.393-3.422 1.33-5.271-.412 1.819-1.267 3.237-2.47 3.976-.159.093-.317.185-.507.247.507-2.528.982-5.61.918-7.244-.886 1.51-2.058 4.685-2.85 7.244-1.647-.986-3.548-1.418-5.48-1.264 1.616.247 2.883.894 3.611 1.88.158.216.285.432.38.648-2.439-.278-5.67-.524-7.38-.308 2.66.462 6.113 1.233 8.33 2.312 1.299.554 2.09.493 3.294-.155M14.438 34.844c-1.639-.445-3.061-1.431-4.113-2.8C9.057 30.36 8.5 28.26 8.717 26.128c.278-2.29 1.454-4.39 3.093-5.503l.216-.16-.154-.222c-.093-.127-.186-.287-.248-.382.464-.127 1.144-.255 1.98-.255.99 0 3.896-.254 5.906 2.705-.556 4.04-3.927 4.231-4.608 4.231-5.566 0-4.175 3.913-4.02 3.913.154 0 1.639-1.209 2.165-1.495-.866 1.177-1.268 2.227-.99 3.245.34 1.05 1.175 1.94 2.381 2.64m2.073-12.662c-.495 0-.866.414-.866.891 0 .51.402.891.866.891.494 0 .866-.414.866-.89 0-.51-.403-.892-.866-.892" transform="translate(-277 -27) translate(277 27)"/>
                <path d="M19.163 18.511c1.64.446 3.062 1.432 4.113 2.8 1.268 1.686 1.825 3.786 1.608 5.917-.278 2.29-1.453 4.39-3.092 5.504l-.217.16.155.222c.093.127.185.254.247.382-.464.127-1.144.254-1.979.254-.99 0-3.897.255-5.907-2.704.557-4.04 3.928-4.231 4.608-4.231 5.567 0 4.175-3.914 4.02-3.914-.154 0-1.639 1.21-2.164 1.496.866-1.177 1.268-2.227.99-3.245-.34-1.018-1.176-1.941-2.382-2.64m-2.041 12.693c.495 0 .866-.414.866-.89 0-.478-.402-.892-.866-.892-.495 0-.866.414-.866.891 0 .477.37.89.866.89" transform="translate(-277 -27) translate(277 27)"/>
            </g>
        </g>
    </g>
</svg>
