<?xml version="1.0" encoding="UTF-8" standalone="no"?>
<!-- Created with Inkscape (http://www.inkscape.org/) -->

<svg
   width="436"
   height="222"
   viewBox="0 0 115.35833 58.7375"
   version="1.1"
   id="svg5"
   sodipodi:docname="warning_bg.svg"
   inkscape:version="1.2.1 (9c6d41e410, 2022-07-14)"
   xmlns:inkscape="http://www.inkscape.org/namespaces/inkscape"
   xmlns:sodipodi="http://sodipodi.sourceforge.net/DTD/sodipodi-0.dtd"
   xmlns="http://www.w3.org/2000/svg"
   xmlns:svg="http://www.w3.org/2000/svg">
  <sodipodi:namedview
     id="namedview158"
     pagecolor="#ffffff"
     bordercolor="#666666"
     borderopacity="1.0"
     inkscape:showpageshadow="2"
     inkscape:pageopacity="0.0"
     inkscape:pagecheckerboard="0"
     inkscape:deskcolor="#d1d1d1"
     showgrid="false"
     inkscape:zoom="1.3130631"
     inkscape:cx="290.92281"
     inkscape:cy="0"
     inkscape:window-width="3440"
     inkscape:window-height="1369"
     inkscape:window-x="3832"
     inkscape:window-y="500"
     inkscape:window-maximized="1"
     inkscape:current-layer="svg5" />
  <defs
     id="defs2" />
  <path
     id="rect2642"
     style="fill:#fff5d5;fill-opacity:1;stroke:none;stroke-width:0.371594;stroke-linecap:round;stroke-linejoin:round;stroke-dasharray:none;stroke-opacity:1"
     d="m 60.654371,24.172144 c -1.78427,0 0.607524,1.436208 0.607524,3.220475 0,1.541185 1.072191,2.822343 2.514058,3.142961 -1.141549,0.162975 -2.013831,1.13953 -2.013831,2.327507 0,1.091883 0.736986,2.004619 1.74253,2.271696 h -0.858346 c -1.699302,0 -3.067513,1.368208 -3.067513,3.067513 0,1.699302 1.368211,3.066996 3.067513,3.066996 h 49.486384 c 1.69931,0 3.067,-1.367694 3.067,-3.066996 0,-1.699305 -1.36769,-3.067513 -3.067,-3.067513 H 93.550877 c 0.0286,-0.0076 0.0576,-0.01416 0.0858,-0.02274 h -7.11223 c -1.24616,0 -2.24896,-1.002806 -2.24896,-2.248958 0,-1.246154 1.0028,-2.249476 2.24896,-2.249476 h 9.85883 c 1.78427,0 3.22047,-1.436722 3.22047,-3.220992 0,-1.784267 -1.4362,-3.220475 -3.22047,-3.220475 z m 45.715889,2.055689 c -1.2016,0 -2.16886,0.967786 -2.16886,2.169376 0,1.20159 0.96726,2.16886 2.16886,2.16886 h 5.78362 c 1.20159,0 2.16886,-0.96727 2.16886,-2.16886 0,-1.20159 -0.96727,-2.169376 -2.16886,-2.169376 z M 18.716171,39.130404 c -1.784269,0 -3.220992,1.436723 -3.220992,3.220992 0,1.784271 1.436723,3.220476 3.220992,3.220476 h 3.834391 c 1.3028,0 2.351278,1.048995 2.351278,2.351794 0,1.302799 -1.048478,2.351278 -2.351278,2.351278 H 3.226161 c -1.699306,0 -3.067514,1.368208 -3.067514,3.067513 0,1.699304 1.368208,3.067513 3.067514,3.067513 h 49.486385 c 1.699304,0 3.067513,-1.368209 3.067513,-3.067513 0,-1.699305 -1.368209,-3.067513 -3.067513,-3.067513 h -1.431438 c 1.3028,0 2.351795,-1.048479 2.351795,-2.351278 0,-1.302799 -1.048995,-2.351794 -2.351795,-2.351794 H 50.61655 c 1.784269,0 3.220475,-1.436205 3.220475,-3.220476 0,-1.784269 -1.436206,-3.220992 -3.220475,-3.220992 z"
     sodipodi:nodetypes="sscscssssssccsssssssssssssssssssssssssscsscsss" />
  <path
     id="path998"
     style="fill:#ffe9a1;fill-opacity:1;stroke:none;stroke-width:0.901592;stroke-linecap:round;stroke-linejoin:round;stroke-dasharray:none;stroke-opacity:1"
     d="M 41.412972,55.815911 59.432585,21.76411 74.106485,55.876259"
     sodipodi:nodetypes="ccc" />
  <path
     id="circle955"
     style="fill:none;stroke:#ffc32a;stroke-width:1;stroke-linecap:round;stroke-linejoin:round;stroke-dasharray:none;stroke-opacity:1"
     d="M 39.64984,55.305614 58.295313,18.989798 74.459112,55.875411 c -2.406167,-0.03167 -29.94292,0.02974 -31.819197,0.04596"
     sodipodi:nodetypes="cccc" />
  <path
     id="path2332"
     style="fill:none;stroke:#ffc32a;stroke-width:0.6;stroke-linecap:round;stroke-linejoin:round;stroke-opacity:1"
     d="m 39.029677,15.832417 a 2.4581306,2.4581306 0 0 1 -2.458131,2.458131 2.4581306,2.4581306 0 0 1 -2.45813,-2.458131 2.4581306,2.4581306 0 0 1 2.45813,-2.45813 2.4581306,2.4581306 0 0 1 2.458131,2.45813 z" />
  <path
     id="circle2334"
     style="fill:none;stroke:#ffeaa8;stroke-width:0.448;stroke-linecap:round;stroke-linejoin:round;stroke-opacity:1"
     d="m 91.808397,47.075425 a 1.5221158,1.5221158 0 0 1 -1.52211,1.522116 1.5221158,1.5221158 0 0 1 -1.52212,-1.522116 1.5221158,1.5221158 0 0 1 1.52212,-1.522116 1.5221158,1.5221158 0 0 1 1.52211,1.522116 z" />
  <path
     id="path2336"
     style="color:#000000;fill:#ffe9a4;stroke-linecap:round;fill-opacity:1"
     d="m 101.81446,22.905038 a 0.36250949,0.36250949 0 0 0 -0.36122,0.361218 v 0.885218 h -0.8847 a 0.36250949,0.36250949 0 0 0 -0.36328,0.363285 0.36250949,0.36250949 0 0 0 0.36328,0.363285 h 0.8847 v 0.884701 a 0.36250949,0.36250949 0 0 0 0.36122,0.361218 0.36250949,0.36250949 0 0 0 0.36329,-0.361218 v -0.884701 h 0.8847 a 0.36250949,0.36250949 0 0 0 0.36328,-0.363285 0.36250949,0.36250949 0 0 0 -0.36328,-0.363285 h -0.8847 v -0.885218 a 0.36250949,0.36250949 0 0 0 -0.36329,-0.361218 z" />
  <path
     id="rect2773"
     style="fill:#fff5d5;stroke-width:0.299505;stroke-linecap:round;stroke-linejoin:round;fill-opacity:1"
     d="m 76.508507,0.191696 c -1.58401,0 -2.85925,1.275251 -2.85925,2.859257 0,1.584004 1.27524,2.859257 2.85925,2.859257 h 6.98717 c -0.0631,0 -0.12533,0.0032 -0.18707,0.0083 1.15648,0.09596 2.05931,1.059131 2.05931,2.241207 0,1.182076 -0.90283,2.145244 -2.05931,2.241207 0.0617,0.005 0.12399,0.0083 0.18707,0.0083 h -1.16633 c -1.13857,0 -2.05518,0.916609 -2.05518,2.055172 0,1.138563 0.91661,2.055171 2.05518,2.055171 h 26.784923 c 1.13857,0 2.05518,-0.916608 2.05518,-2.055171 0,-1.138563 -0.91661,-2.055172 -2.05518,-2.055172 H 90.935017 c -1.24616,0 -2.24947,-1.003321 -2.24947,-2.249475 0,-1.246155 1.00331,-2.249475 2.24947,-2.249475 h 7.9127 c 1.584013,0 2.859253,-1.275253 2.859253,-2.859257 0,-1.584006 -1.27524,-2.859257 -2.859253,-2.859257 z m 29.964063,3.235978 c -0.97501,0 -1.76009,0.784566 -1.76009,1.759582 0,0.975017 0.78508,1.7601 1.76009,1.7601 h 1.387 c 0.97502,0 1.7601,-0.785083 1.7601,-1.7601 0,-0.975016 -0.78508,-1.759582 -1.7601,-1.759582 z" />
  <path
     style="fill:none;stroke:#ffc32a;stroke-width:1.24354;stroke-linecap:round;stroke-linejoin:miter;stroke-dasharray:none;stroke-opacity:1"
     d="m 58.132998,31.98826 0,14.382124 m 0,3.412922 v 1.297162"
     id="path1063"
     sodipodi:nodetypes="cccc" />
</svg>
